# xmcd
#
# Track frame offsets:
#	182
#	12990
#	27827
#	41142
#	51960
#	65517
#	78257
#	89047
#	102622
#	114447
#	127097
#	138905
#	152970
#	165302
#	178550
#	194230
#
# Disc length: 2749 seconds
# Revision: 3
# Processed by: cddbd v1.5.2PL0 Copyright (c) Steve Scherf et al.
# Submitted via: dBpowerAMP V12.0
#
DISCID=e30abb10
DTITLE=Etta James - My Greatest Songs
DYEAR=1992
DGENRE=Soul
TTITLE0=Something's Got a Hold on Me
TTITLE1=Sunday Kind of Love
TTITLE2=Pushover
TTITLE3=Miss Pitiful
TTITLE4=Trust in Me
TTITLE5=Spoonful (Duett With Harvey Fuqua)
TTITLE6=Tell Mama
TTITLE7=At Last
TTITLE8=Payback
TTITLE9=Security
TTITLE10=I'd Rather go Blind
TTITLE11=I Just Want to Make Love to You
TTITLE12=Stop the Wedding
TTITLE13=Two Sides (to Every Story)
TTITLE14=I Found Love
TTITLE15=It's All Right
EXTD=
EXTT0=
EXTT1=
EXTT2=
EXTT3=
EXTT4=
EXTT5=
EXTT6=
EXTT7=
EXTT8=
EXTT9=
EXTT10=
EXTT11=
EXTT12=
EXTT13=
EXTT14=
EXTT15=
PLAYORDER=
